<svg width="357" height="444" viewBox="0 0 357 444" fill="none" xmlns="http://www.w3.org/2000/svg">
<path opacity="0.5" d="M15 270H252V420H15V270Z" fill="#B6F157"/>
<path d="M252.129 180.5H20.6292C16.2109 180.5 12.6292 184.082 12.6292 188.5V383.593C12.6292 384.196 12.6949 384.79 12.8549 385.371C14.4023 390.994 24.364 422.138 56.6292 428.5C89.5938 435 204.906 429.428 221.208 428.6C222.514 428.533 223.726 428.145 224.84 427.459C247.853 413.299 253.145 403.254 259.632 385.843C259.961 384.958 260.129 384.017 260.129 383.072V188.5C260.129 184.082 256.547 180.5 252.129 180.5Z" stroke="#5BD346" stroke-width="24"/>
<path d="M262.129 233.5H320.278C321.173 233.5 322.05 233.643 322.869 234.001C327.652 236.09 344.629 245.02 344.629 266.5C344.629 291.5 344.629 310 344.629 335C344.629 360 321.629 360 321.629 360C321.629 360 321.629 360 321.629 360H262.129" stroke="#5BD346" stroke-width="24"/>
<path opacity="0.6" d="M102.129 50.5L99.1642 56.9951C94.6002 66.9924 96.4857 78.7527 103.946 86.8223V86.8223C111.339 94.8188 113.264 106.448 108.841 116.4L102.129 131.5" stroke="#B6F157" stroke-width="24" stroke-linecap="round"/>
<path opacity="0.6" d="M161.629 12C161.629 12 149.629 27.5 146.129 47V47C141.572 72.3913 178.676 86.1117 169.393 110.181C166.684 117.205 163.857 123.407 161.629 126.5" stroke="#B6F157" stroke-width="24" stroke-linecap="round"/>
</svg>
